#!OML:ASF X:\für Bonn\!DataBase\2005_08_11_Bastian_Final\c3d\Bastian.ASF
:FULLY-SPECIFIED
:DEGREES
276
root 10.3368 17.4257 -2.0693 180.908 75.8838 -170.927
lowerback 22.0255 -1.90921 6.44971
upperback 15.5909 0.481555 3.23825
thorax 4.88704 1.38312 -0.137219
lowerneck -5.46757 -10.6724 -5.2602
upperneck -9.05943 -13.3439 12.5754
head -0.652087 -6.6247 4.7785
rclavicle 7.95139e-015 2.62396e-014
rhumerus -25.103 29.6188 -85.554
rradius 30.6106
rwrist -9.49503
rhand -17.9851 1.43027
rfingers 7.12502
rthumb 8.28468 -28.3873
lclavicle 7.95139e-015 2.62396e-014
lhumerus -4.84932 -27.4819 85.2517
lradius 44.245
lwrist 19.4376
lhand -11.5729 -10.956
lfingers 7.12502
lthumb 14.4685 18.5195
rfemur -4.66073 -0.0535317 26.6756
rtibia 34.5082
rfoot -15.7706 -10.1787
rtoes 1.18246
lfemur -5.6501 -3.97733 -16.0018
ltibia 41.0118
lfoot -11.1756 -9.02055
ltoes -22.9897
277
root 10.413 17.4279 -2.05655 181.193 75.8608 -170.487
lowerback 21.6006 -1.82474 6.36228
upperback 15.4935 0.505276 3.18522
thorax 4.9821 1.37733 -0.149776
lowerneck -5.26987 -10.5925 -5.37771
upperneck -8.93054 -13.2496 12.6136
head -0.641062 -6.57897 4.82557
rclavicle -4.77083e-015 2.70347e-014
rhumerus -25.2213 29.1432 -85.6935
rradius 30.5378
rwrist -9.55037
rhand -17.9965 1.36592
rfingers 7.12502
rthumb 8.27376 -28.4521
lclavicle -4.77083e-015 2.70347e-014
lhumerus -5.35998 -27.0498 85.4368
lradius 43.9746
lwrist 19.406
lhand -11.6772 -11.0429
lfingers 7.12502
lthumb 14.368 18.4398
rfemur -4.03893 -0.1042 26.9111
rtibia 34.1253
rfoot -15.9053 -10.1864
rtoes 1.43279
lfemur -6.15104 -4.09336 -15.8229
ltibia 42.4988
lfoot -10.6553 -8.86196
ltoes -23.3014
278
root 10.4889 17.4294 -2.04403 181.548 75.8603 -170.037
lowerback 21.1536 -1.72612 6.2871
upperback 15.3757 0.545144 3.13734
thorax 5.06696 1.37793 -0.166482
lowerneck -5.11726 -10.5309 -5.53175
upperneck -8.72886 -13.185 12.6598
head -0.592264 -6.54512 4.87429
rclavicle 4.77083e-015 -3.10104e-014
rhumerus -25.3499 28.6262 -85.8092
rradius 30.471
rwrist -9.57277
rhand -18.0236 1.27996
rfingers 7.12502
rthumb 8.24755 -28.5391
lclavicle 4.77083e-015 -3.10104e-014
lhumerus -5.8798 -26.5483 85.6607
lradius 43.6205
lwrist 19.3571
lhand -11.7423 -11.1349
lfingers 7.12502
lthumb 14.3053 18.3523
rfemur -3.4822 -0.132698 27.1494
rtibia 33.7515
rfoot -16.0165 -10.2102
rtoes 1.70196
lfemur -6.76183 -4.11694 -15.6296
ltibia 44.0293
lfoot -10.1931 -8.73811
ltoes -23.6592
279
root 10.5647 17.4302 -2.03265 181.742 75.8268 -169.73
lowerback 20.7148 -1.64422 6.21559
upperback 15.2919 0.571041 3.06277
thorax 5.18814 1.37732 -0.209627
lowerneck -5.03907 -10.4709 -5.64106
upperneck -8.52784 -13.1196 12.7219
head -0.532883 -6.50943 4.91603
rclavicle -5.56597e-014 -2.38542e-015
rhumerus -25.41 28.0434 -85.9089
rradius 30.4142
rwrist -9.57787
rhand -18.0636 1.21939
rfingers 7.12502
rthumb 8.20898 -28.6011
lclavicle -5.56597e-014 -2.38542e-015
lhumerus -6.35116 -26.1231 85.809
lradius 43.2777
lwrist 19.358
lhand -11.8669 -11.1601
lfingers 7.12502
lthumb 14.1853 18.3355
rfemur -2.92003 -0.160477 27.3509
rtibia 33.4049
rfoot -16.1546 -10.2407
rtoes 1.84615
lfemur -7.38122 -4.21957 -15.4934
ltibia 45.5599
lfoot -9.72416 -8.53884
ltoes -23.9689
280
root 10.6401 17.4285 -2.02089 182.095 75.8088 -169.274
lowerback 20.3149 -1.55942 6.1626
upperback 15.1759 0.606076 3.00417
thorax 5.2549 1.37874 -0.248877
lowerneck -4.90397 -10.4072 -5.738
upperneck -8.5055 -13.0068 13.1434
head -0.434405 -6.46832 4.58048
rclavicle -2.14687e-014 -7.07673e-014
rhumerus -25.5131 27.43 -86.0235
rradius 30.3315
rwrist -9.59449
rhand -18.0889 1.21576
rfingers 7.12502
rthumb 8.18455 -28.6057
lclavicle -2.14687e-014 -7.07673e-014
lhumerus -6.89456 -25.6633 85.9958
lradius 42.8864
lwrist 19.3721
lhand -12.0477 -11.1786
lfingers 7.12502
lthumb 14.0111 18.3292
rfemur -2.37799 -0.205841 27.5895
rtibia 33.0702
rfoot -16.3065 -10.2432
rtoes 2.08879
lfemur -8.04736 -4.27804 -15.3026
ltibia 47.0839
lfoot -9.35196 -8.33639
ltoes -23.6508
281
root 10.7157 17.4266 -2.01046 182.323 75.7891 -168.972
lowerback 19.9016 -1.46975 6.07359
upperback 15.0645 0.642234 2.9545
thorax 5.33398 1.37779 -0.25774
lowerneck -4.83512 -10.3518 -5.8808
upperneck -8.25813 -12.953 13.1961
head -0.363846 -6.4362 4.6141
rclavicle 2.46493e-014 0
rhumerus -25.5565 26.6714 -86.059
rradius 30.1791
rwrist -9.46198
rhand -18.0843 1.30695
rfingers 7.12502
rthumb 8.18895 -28.5144
lclavicle 2.46493e-014 0
lhumerus -7.46243 -25.2217 86.1919
lradius 42.4972
lwrist 19.3854
lhand -12.2341 -11.153
lfingers 7.12502
lthumb 13.8314 18.3672
rfemur -1.85636 -0.244576 27.7869
rtibia 32.7185
rfoot -16.4133 -10.2737
rtoes 2.13209
lfemur -8.76038 -4.29297 -15.1604
ltibia 48.5827
lfoot -9.02375 -8.09254
ltoes -22.986
282
root 10.7918 17.4279 -2.00005 182.457 75.7827 -168.771
lowerback 19.5023 -1.37295 5.9749
upperback 14.9616 0.69015 2.88574
thorax 5.41746 1.38386 -0.282745
lowerneck -4.79091 -10.3041 -5.9814
upperneck -8.02081 -12.9091 13.2331
head -0.295615 -6.4092 4.63564
rclavicle 3.97569e-015 1.90833e-014
rhumerus -25.5906 25.856 -86.1057
rradius 30.0478
rwrist -9.29306
rhand -18.0632 1.40294
rfingers 7.12502
rthumb 8.20933 -28.4176
lclavicle 3.97569e-015 1.90833e-014
lhumerus -8.01572 -24.7603 86.366
lradius 42.0675
lwrist 19.4568
lhand -12.4379 -11.1848
lfingers 7.12502
lthumb 13.635 18.3486
rfemur -1.31837 -0.228419 27.9633
rtibia 32.3421
rfoot -16.5429 -10.3405
rtoes 2.32243
lfemur -9.49314 -4.31628 -15.0511
ltibia 50.0282
lfoot -8.8627 -7.82859
ltoes -22.0553
283
root 10.8685 17.4312 -1.99026 182.684 75.7631 -168.453
lowerback 19.1551 -1.29239 5.88979
upperback 14.8409 0.725248 2.84743
thorax 5.45454 1.38181 -0.281875
lowerneck -4.70893 -10.2507 -6.1799
upperneck -7.73227 -12.8621 13.2969
head -0.210253 -6.37958 4.67997
rclavicle 3.29983e-014 -1.43125e-014
rhumerus -25.6652 25.0084 -86.1246
rradius 29.908
rwrist -9.06622
rhand -18.0767 1.52514
rfingers 7.12502
rthumb 8.19628 -28.2959
lclavicle 3.29983e-014 -1.43125e-014
lhumerus -8.63626 -24.2555 86.5894
lradius 41.5819
lwrist 19.4931
lhand -12.7043 -11.2725
lfingers 7.12502
lthumb 13.3782 18.278
rfemur -0.751647 -0.268785 28.1569
rtibia 31.9525
rfoot -16.6741 -10.3412
rtoes 2.46494
lfemur -10.2139 -4.30445 -14.9068
ltibia 51.3837
lfoot -8.96528 -7.58449
ltoes -21.2285
284
root 10.9455 17.4325 -1.98091 182.914 75.7493 -168.166
lowerback 18.7956 -1.21008 5.8348
upperback 14.7203 0.766359 2.78014
thorax 5.50056 1.38671 -0.328999
lowerneck -4.69396 -10.2068 -6.30517
upperneck -7.40154 -12.8313 13.35
head -0.106143 -6.35637 4.70469
rclavicle -1.19271e-014 4.45278e-014
rhumerus -25.6878 24.1193 -86.1636
rradius 29.7198
rwrist -8.86499
rhand -18.0516 1.72497
rfingers 7.12502
rthumb 8.22054 -28.0951
lclavicle -1.19271e-014 4.45278e-014
lhumerus -9.24179 -23.8649 86.7399
lradius 41.1019
lwrist 19.6473
lhand -13.0257 -11.3343
lfingers 7.12502
lthumb 13.0684 18.2362
rfemur -0.204459 -0.226793 28.3611
rtibia 31.537
rfoot -16.7698 -10.4101
rtoes 2.76731
lfemur -10.9564 -4.25789 -14.7769
ltibia 52.5895
lfoot -9.2649 -7.38118
ltoes -20.9632
285
root 11.023 17.4313 -1.97235 182.965 75.7537 -168.07
lowerback 18.4369 -1.12028 5.6979
upperback 14.6275 0.810154 2.72839
thorax 5.57646 1.38818 -0.312563
lowerneck -4.75097 -10.1559 -6.42772
upperneck -7.08337 -12.7879 13.3461
head -0.000149646 -6.32407 4.71003
rclavicle -1.35174e-014 -2.8625e-014
rhumerus -25.6602 23.2744 -86.1485
rradius 29.5155
rwrist -8.63303
rhand -18.045 1.88861
rfingers 7.12502
rthumb 8.2269 -27.9312
lclavicle -1.35174e-014 -2.8625e-014
lhumerus -9.81736 -23.3138 86.9304
lradius 40.5798
lwrist 19.7584
lhand -13.3144 -11.4467
lfingers 7.12502
lthumb 12.7901 18.1415
rfemur 0.344038 -0.20935 28.5062
rtibia 31.1085
rfoot -16.8447 -10.4907
rtoes 2.69224
lfemur -11.649 -4.15111 -14.7057
ltibia 53.5945
lfoot -9.56314 -7.21261
ltoes -20.7256
286
root 11.1007 17.4313 -1.96469 183.258 75.7354 -167.714
lowerback 18.123 -1.05753 5.67055
upperback 14.5243 0.839388 2.66884
thorax 5.62109 1.39136 -0.364209
lowerneck -4.85313 -10.118 -6.53432
upperneck -6.66822 -12.7708 13.3316
head 0.142019 -6.30216 4.70314
rclavicle -1.66979e-014 -2.14687e-014
rhumerus -25.6498 22.6225 -86.2127
rradius 29.2793
rwrist -8.54661
rhand -18.0943 2.01217
rfingers 7.12502
rthumb 8.17933 -27.8095
lclavicle -1.66979e-014 -2.14687e-014
lhumerus -10.4028 -22.7708 87.0546
lradius 39.9992
lwrist 19.896
lhand -13.5104 -11.5478
lfingers 7.12502
lthumb 12.6012 18.0522
rfemur 0.904302 -0.1545 28.7292
rtibia 30.6835
rfoot -16.9453 -10.5765
rtoes 3.00308
lfemur -12.3166 -4.05865 -14.5762
ltibia 54.372
lfoot -9.82519 -7.06789
ltoes -20.3349
